<svg width="53" height="58" viewBox="0 0 53 58" fill="none" xmlns="http://www.w3.org/2000/svg">
<path d="M17.7538 25.1333H12.4277V19.3331C12.4277 19.0768 12.3342 18.8309 12.1677 18.6496C12.0012 18.4683 11.7754 18.3665 11.54 18.3665C10.1355 18.3665 8.76245 18.82 7.59461 19.6698C6.42677 20.5196 5.51655 21.7274 4.97905 23.1405C4.44155 24.5536 4.30092 26.1086 4.57493 27.6087C4.84895 29.1089 5.5253 30.4868 6.51847 31.5684C7.51164 32.65 8.77701 33.3865 10.1546 33.6849C11.5321 33.9833 12.96 33.8302 14.2576 33.2448C15.5553 32.6595 16.6644 31.6683 17.4447 30.3965C18.225 29.1247 18.6415 27.6295 18.6415 26.1C18.6415 25.8436 18.548 25.5977 18.3815 25.4164C18.2151 25.2351 17.9893 25.1333 17.7538 25.1333ZM11.54 31.9001C10.2037 31.9014 8.91573 31.3557 7.93168 30.3711C6.94763 29.3866 6.3394 28.0351 6.22766 26.585C6.11591 25.1348 6.50883 23.6919 7.32844 22.5425C8.14806 21.3932 9.33448 20.6213 10.6523 20.3801V26.1C10.6523 26.3564 10.7458 26.6022 10.9123 26.7835C11.0788 26.9648 11.3046 27.0667 11.54 27.0667H16.7925C16.581 28.4175 15.9379 29.6435 14.9768 30.5279C14.0156 31.4124 12.7983 31.8984 11.54 31.9001V31.9001Z" fill="black"/>
<path d="M14.2031 15.4667C13.9677 15.4667 13.7419 15.5685 13.5754 15.7498C13.409 15.9311 13.3154 16.177 13.3154 16.4333V23.1998C13.3154 23.4562 13.409 23.7021 13.5754 23.8834C13.7419 24.0646 13.9677 24.1665 14.2031 24.1665H20.417C20.6524 24.1665 20.8782 24.0646 21.0447 23.8834C21.2112 23.7021 21.3047 23.4562 21.3047 23.1998C21.3026 21.1496 20.5537 19.184 19.2224 17.7342C17.891 16.2845 16.0859 15.469 14.2031 15.4667V15.4667ZM15.0908 22.2332V17.4802C16.1806 17.6831 17.1858 18.2492 17.9676 19.1006C18.7494 19.9519 19.2693 21.0464 19.4556 22.2332H15.0908Z" fill="black"/>
<path d="M4.43848 36.7335H17.7538V38.6668H4.43848V36.7335Z" fill="black"/>
<path d="M4.43848 40.6005H17.7538V42.5338H4.43848V40.6005Z" fill="black"/>
<path d="M4.43848 44.4669H6.21387V46.4002H4.43848V44.4669Z" fill="black"/>
<path d="M7.98926 44.4669H17.7539V46.4002H7.98926V44.4669Z" fill="black"/>
<path d="M51.4861 27.0667H40.8338V18.908L46.7459 21.2087C46.8799 21.2629 47.024 21.2808 47.1657 21.2609C47.3075 21.241 47.4427 21.1839 47.5598 21.0945C47.6768 21.0051 47.7721 20.8861 47.8376 20.7477C47.903 20.6093 47.9366 20.4557 47.9354 20.3V14.5H48.8231C49.5294 14.5 50.2067 14.1945 50.7061 13.6506C51.2056 13.1068 51.4861 12.3691 51.4861 11.6C51.4861 10.8309 51.2056 10.0932 50.7061 9.54939C50.2067 9.00553 49.5294 8.7 48.8231 8.7H47.9354V2.9C47.9351 2.7452 47.9012 2.59267 47.8364 2.45489C47.7716 2.31712 47.6778 2.19801 47.5626 2.10733C47.4441 2.02013 47.3086 1.96424 47.1668 1.9441C47.025 1.92396 46.8809 1.94014 46.7459 1.99133L40.8338 4.292V1.93333C40.8324 1.42105 40.6449 0.93019 40.3123 0.56795C39.9796 0.205711 39.5289 0.00152997 39.0585 0H10.6523C10.417 0.00190848 10.1913 0.102277 10.022 0.280333L0.257431 10.9137C0.0939216 11.098 0.00175256 11.3437 0 11.6V53.1667C0 53.423 0.0935244 53.6689 0.259999 53.8502C0.426474 54.0315 0.652262 54.1333 0.887692 54.1333H20.4169V57.0333C20.4169 57.2897 20.5104 57.5356 20.6769 57.7169C20.8434 57.8982 21.0692 58 21.3046 58H51.4861C51.7216 58 51.9474 57.8982 52.1138 57.7169C52.2803 57.5356 52.3738 57.2897 52.3738 57.0333V28.0333C52.3738 27.777 52.2803 27.5311 52.1138 27.3498C51.9474 27.1685 51.7216 27.0667 51.4861 27.0667ZM47.9354 10.6333H48.8231C49.0585 10.6333 49.2843 10.7352 49.4508 10.9165C49.6172 11.0977 49.7108 11.3436 49.7108 11.6C49.7108 11.8564 49.6172 12.1023 49.4508 12.2835C49.2843 12.4648 49.0585 12.5667 48.8231 12.5667H47.9354V10.6333ZM46.16 4.27267V18.9273L35.5077 14.79V8.41L46.16 4.27267ZM9.76461 3.29633V10.6333H3.02703L9.76461 3.29633ZM20.4169 28.0333V52.2H1.77538V12.5667H10.6523C10.8877 12.5667 11.1135 12.4648 11.28 12.2835C11.4465 12.1023 11.54 11.8564 11.54 11.6V1.93333H39.0585V4.97833L34.4691 6.76667H27.5185C27.283 6.76667 27.0572 6.86851 26.8908 7.0498C26.7243 7.23108 26.6308 7.47696 26.6308 7.73333V7.946L23.7546 8.729C23.5622 8.78081 23.3912 8.90129 23.2689 9.07123C23.1467 9.24116 23.0802 9.45078 23.08 9.66667V13.5333C23.0802 13.7492 23.1467 13.9588 23.2689 14.1288C23.3912 14.2987 23.5622 14.4192 23.7546 14.471L26.6308 15.254V15.4667C26.6308 15.723 26.7243 15.9689 26.8908 16.1502C27.0572 16.3315 27.283 16.4333 27.5185 16.4333H28.4062V24.1667C28.4062 24.423 28.4997 24.6689 28.6661 24.8502C28.8326 25.0315 29.0584 25.1333 29.2938 25.1333H32.8446C33.0631 25.1348 33.2743 25.0474 33.4368 24.8883C33.5994 24.7292 33.7016 24.5098 33.7234 24.273L34.5223 16.4527L39.0585 18.2217V27.0667H21.3046C21.0692 27.0667 20.8434 27.1685 20.6769 27.3498C20.5104 27.5311 20.4169 27.777 20.4169 28.0333V28.0333ZM28.4062 14.5V8.7H33.7323V14.5H28.4062ZM32.7381 16.4333L32.0457 23.2H30.1815V16.4333H32.7381ZM26.6308 9.93733V13.2627L24.8554 12.7793V10.4207L26.6308 9.93733ZM50.5985 56.0667H22.1923V34.8H50.5985V56.0667ZM50.5985 32.8667H22.1923V29H50.5985V32.8667Z" fill="black"/>
<path d="M23.9678 29.9667H25.7432V31.9001H23.9678V29.9667Z" fill="black"/>
<path d="M27.5186 29.9667H29.2939V31.9001H27.5186V29.9667Z" fill="black"/>
<path d="M31.0693 29.9667H32.8447V31.9001H31.0693V29.9667Z" fill="black"/>
<path d="M45.2724 51.2334V38.6667C45.2724 38.4104 45.1789 38.1645 45.0124 37.9832C44.8459 37.8019 44.6201 37.7001 44.3847 37.7001H40.8339C40.5985 37.7001 40.3727 37.8019 40.2062 37.9832C40.0398 38.1645 39.9462 38.4104 39.9462 38.6667V51.2334H39.0586V42.5334C39.0586 42.277 38.965 42.0312 38.7986 41.8499C38.6321 41.6686 38.4063 41.5667 38.1709 41.5667H34.6201C34.3847 41.5667 34.1589 41.6686 33.9924 41.8499C33.8259 42.0312 33.7324 42.277 33.7324 42.5334V51.2334H32.8447V45.4334C32.8447 45.177 32.7512 44.9312 32.5847 44.7499C32.4182 44.5686 32.1924 44.4668 31.957 44.4668H28.4062C28.1708 44.4668 27.945 44.5686 27.7785 44.7499C27.6121 44.9312 27.5185 45.177 27.5185 45.4334V51.2334H25.7432V53.1668H47.0478V51.2334H45.2724ZM31.0693 51.2334H29.2939V46.4001H31.0693V51.2334ZM37.2832 51.2334H35.5078V43.5001H37.2832V51.2334ZM43.497 51.2334H41.7216V39.6334H43.497V51.2334Z" fill="black"/>
</svg>
