<svg width="16" height="16" viewBox="0 0 16 16" fill="none" xmlns="http://www.w3.org/2000/svg">
<path d="M7.99987 12.5257C10.4994 12.5257 12.5256 10.4994 12.5256 7.9999C12.5256 5.5004 10.4994 3.47415 7.99987 3.47415C5.50037 3.47415 3.47412 5.5004 3.47412 7.9999C3.47412 10.4994 5.50037 12.5257 7.99987 12.5257Z" fill="#FFD347"/>
<path d="M8.00008 1.77653C7.86655 1.77653 7.7583 1.66831 7.7583 1.53475V0.241781C7.7583 0.108219 7.86655 0 8.00008 0C8.13361 0 8.24186 0.108219 8.24186 0.241781V1.53478C8.24186 1.66831 8.13361 1.77653 8.00008 1.77653Z" fill="#FFD347"/>
<path d="M4.76764 2.64274C4.68408 2.64274 4.60283 2.5994 4.55805 2.52184L3.91158 1.40209C3.84483 1.28646 3.88442 1.13859 4.00008 1.07181C4.11574 1.00512 4.26358 1.04462 4.33036 1.16031L4.97683 2.28006C5.04358 2.39568 5.00398 2.54356 4.88833 2.61034C4.85023 2.63231 4.80867 2.64274 4.76764 2.64274Z" fill="#FFD347"/>
<path d="M2.40063 5.00919C2.35963 5.00919 2.31804 4.99875 2.27998 4.97675L1.16023 4.33028C1.0446 4.26354 1.00498 4.11566 1.07173 4C1.13848 3.88435 1.28635 3.84479 1.40201 3.9115L2.52176 4.55797C2.63738 4.62472 2.67701 4.7726 2.61026 4.88825C2.56545 4.96585 2.4842 5.00919 2.40063 5.00919Z" fill="#FFD347"/>
<path d="M1.53475 8.24177H0.241781C0.10825 8.24177 0 8.13355 0 7.99999C0 7.86643 0.10825 7.75821 0.241781 7.75821H1.53478C1.66831 7.75821 1.77656 7.86643 1.77656 7.99999C1.77656 8.13355 1.66828 8.24177 1.53475 8.24177Z" fill="#FFD347"/>
<path d="M1.28133 12.1209C1.19777 12.1209 1.11652 12.0776 1.07174 12C1.00498 11.8844 1.04458 11.7365 1.16024 11.6697L2.27999 11.0233C2.39561 10.9566 2.54349 10.9961 2.61027 11.1118C2.67702 11.2274 2.63742 11.3753 2.52177 11.442L1.40202 12.0885C1.36392 12.1105 1.32233 12.1209 1.28133 12.1209Z" fill="#FFD347"/>
<path d="M4.12073 14.9606C4.07973 14.9606 4.03813 14.9502 4.00007 14.9282C3.88445 14.8614 3.84482 14.7136 3.91157 14.5979L4.55804 13.4782C4.62479 13.3625 4.77267 13.3229 4.88832 13.3897C5.00395 13.4564 5.04357 13.6043 4.97682 13.7199L4.33035 14.8397C4.28554 14.9172 4.20429 14.9606 4.12073 14.9606Z" fill="#FFD347"/>
<path d="M8.00008 16C7.86655 16 7.7583 15.8918 7.7583 15.7582V14.4652C7.7583 14.3316 7.86655 14.2234 8.00008 14.2234C8.13361 14.2234 8.24186 14.3316 8.24186 14.4652V15.7582C8.24186 15.8918 8.13361 16 8.00008 16Z" fill="#FFD347"/>
<path d="M11.8795 14.9606C11.7959 14.9606 11.7146 14.9173 11.6699 14.8397L11.0234 13.72C10.9566 13.6043 10.9962 13.4565 11.1119 13.3897C11.2275 13.323 11.3754 13.3625 11.4422 13.4782L12.0886 14.5979C12.1554 14.7135 12.1158 14.8614 12.0001 14.9282C11.9621 14.9502 11.9205 14.9606 11.8795 14.9606Z" fill="#FFD347"/>
<path d="M14.7185 12.1209C14.6775 12.1209 14.6359 12.1105 14.5978 12.0885L13.4781 11.442C13.3625 11.3753 13.3228 11.2274 13.3896 11.1117C13.4563 10.9961 13.6042 10.9565 13.7199 11.0232L14.8396 11.6697C14.9553 11.7364 14.9949 11.8843 14.9281 12C14.8833 12.0775 14.8021 12.1209 14.7185 12.1209Z" fill="#FFD347"/>
<path d="M15.7582 8.24177H14.4652C14.3316 8.24177 14.2234 8.13355 14.2234 7.99999C14.2234 7.86643 14.3316 7.75821 14.4652 7.75821H15.7582C15.8917 7.75821 16 7.86643 16 7.99999C16 8.13355 15.8917 8.24177 15.7582 8.24177Z" fill="#FFD347"/>
<path d="M13.5992 5.00918C13.5156 5.00918 13.4344 4.96584 13.3896 4.88827C13.3229 4.77265 13.3624 4.62478 13.4781 4.55799L14.5979 3.91153C14.7135 3.84484 14.8614 3.88434 14.9281 4.00003C14.9949 4.11565 14.9553 4.26353 14.8396 4.33031L13.7199 4.97677C13.6818 4.99874 13.6402 5.00918 13.5992 5.00918Z" fill="#FFD347"/>
<path d="M11.2323 2.64275C11.1913 2.64275 11.1497 2.63231 11.1116 2.61031C10.996 2.54356 10.9564 2.39569 11.0231 2.28003L11.6696 1.16028C11.7364 1.04463 11.8842 1.00506 11.9999 1.07178C12.1155 1.13853 12.1551 1.28641 12.0884 1.40206L11.4419 2.52181C11.3971 2.59941 11.3158 2.64275 11.2323 2.64275Z" fill="#FFD347"/>
<path d="M8.00001 3.47437C7.8362 3.47437 7.67445 3.4833 7.51514 3.50024C9.78654 3.74221 11.5559 5.66437 11.5559 7.99996C11.5559 10.3356 9.78651 12.2577 7.51514 12.4997C7.67445 12.5167 7.83617 12.5256 8.00001 12.5256C10.4995 12.5256 12.5256 10.4994 12.5256 7.99996C12.5256 5.50052 10.4995 3.47437 8.00001 3.47437Z" fill="#FFBE31"/>
</svg>
