<svg width="14" height="14" viewBox="0 0 14 14" fill="none" xmlns="http://www.w3.org/2000/svg">
<g clip-path="url(#clip0)">
<path d="M4.11501 10.5219C7.65266 10.5219 10.5202 7.65398 10.5202 4.11632C10.5202 2.54876 9.95537 1.11479 9.02075 0.00131226C11.9084 0.92831 13.9995 3.6331 13.9995 6.82873C13.9995 10.79 10.7887 14.0009 6.82742 14.0009C3.63179 14.0009 0.926998 11.9097 0 9.02206C1.11347 9.95713 2.5479 10.5219 4.11501 10.5219Z" fill="#FFD93B"/>
<path d="M11.2601 1.19843C12.2194 2.41724 12.7958 3.95163 12.7958 5.62363C12.7958 9.58489 9.58495 12.7958 5.62369 12.7958C3.95169 12.7958 2.4173 12.2193 1.19849 11.26C2.51099 12.9262 4.54204 13.9998 6.82771 13.9998C10.789 13.9998 13.9998 10.7889 13.9998 6.82765C13.9998 4.54198 12.9263 2.51137 11.2601 1.19843Z" fill="#F4C534"/>
<path d="M3.5897 2.80005L4.32843 4.29768L5.98071 4.5375L4.78521 5.70297L5.06716 7.34852L3.5897 6.57169L2.11179 7.34852L2.39375 5.70297L1.19824 4.5375L2.85052 4.29768L3.5897 2.80005Z" fill="#FFD83B"/>
<path d="M7.75677 2.32086L8.13958 3.09725L8.9962 3.22141L8.37626 3.82566L8.52284 4.67825L7.75677 4.27572L6.9907 4.67825L7.13728 3.82566L6.51733 3.22141L7.37396 3.09725L7.75677 2.32086Z" fill="#FFD83B"/>
</g>
<defs>
<clipPath id="clip0">
<rect width="14" height="14" fill="white"/>
</clipPath>
</defs>
</svg>
