<svg width="86" height="86" viewBox="0 0 86 86" fill="none" xmlns="http://www.w3.org/2000/svg">
<rect width="6.536" height="6.536" rx="3" fill="#808DAD" fill-opacity="0.52"/>
<rect y="11.3521" width="6.536" height="6.536" rx="3" fill="#808DAD" fill-opacity="0.52"/>
<rect y="22.704" width="6.536" height="6.536" rx="3" fill="#808DAD" fill-opacity="0.52"/>
<rect y="34.056" width="6.536" height="6.536" rx="3" fill="#808DAD" fill-opacity="0.52"/>
<rect y="45.408" width="6.536" height="6.536" rx="3" fill="#808DAD" fill-opacity="0.52"/>
<rect y="56.76" width="6.536" height="6.536" rx="3" fill="#808DAD" fill-opacity="0.52"/>
<rect y="68.1119" width="6.536" height="6.536" rx="3" fill="#808DAD" fill-opacity="0.52"/>
<rect y="79.464" width="6.536" height="6.536" rx="3" fill="#808DAD" fill-opacity="0.52"/>
<rect x="45.408" width="6.536" height="6.536" rx="3" fill="#808DAD" fill-opacity="0.52"/>
<rect x="45.408" y="11.3521" width="6.536" height="6.536" rx="3" fill="#808DAD" fill-opacity="0.52"/>
<rect x="45.408" y="22.704" width="6.536" height="6.536" rx="3" fill="#808DAD" fill-opacity="0.52"/>
<rect x="45.408" y="34.056" width="6.536" height="6.536" rx="3" fill="#808DAD" fill-opacity="0.52"/>
<rect x="45.408" y="45.408" width="6.536" height="6.536" rx="3" fill="#808DAD" fill-opacity="0.52"/>
<rect x="45.408" y="56.76" width="6.536" height="6.536" rx="3" fill="#808DAD" fill-opacity="0.52"/>
<rect x="45.408" y="68.1119" width="6.536" height="6.536" rx="3" fill="#808DAD" fill-opacity="0.52"/>
<rect x="45.408" y="79.464" width="6.536" height="6.536" rx="3" fill="#808DAD" fill-opacity="0.52"/>
<rect x="22.7041" width="6.536" height="6.536" rx="3" fill="#808DAD" fill-opacity="0.52"/>
<rect x="22.7041" y="11.3521" width="6.536" height="6.536" rx="3" fill="#808DAD" fill-opacity="0.52"/>
<rect x="22.7041" y="22.704" width="6.536" height="6.536" rx="3" fill="#808DAD" fill-opacity="0.52"/>
<rect x="22.7041" y="34.056" width="6.536" height="6.536" rx="3" fill="#808DAD" fill-opacity="0.52"/>
<rect x="22.7041" y="45.408" width="6.536" height="6.536" rx="3" fill="#808DAD" fill-opacity="0.52"/>
<rect x="22.7041" y="56.76" width="6.536" height="6.536" rx="3" fill="#808DAD" fill-opacity="0.52"/>
<rect x="22.7041" y="68.1119" width="6.536" height="6.536" rx="3" fill="#808DAD" fill-opacity="0.52"/>
<rect x="22.7041" y="79.464" width="6.536" height="6.536" rx="3" fill="#808DAD" fill-opacity="0.52"/>
<rect x="68.1119" width="6.536" height="6.536" rx="3" fill="#808DAD" fill-opacity="0.52"/>
<rect x="68.1119" y="11.3521" width="6.536" height="6.536" rx="3" fill="#808DAD" fill-opacity="0.52"/>
<rect x="68.1119" y="22.704" width="6.536" height="6.536" rx="3" fill="#808DAD" fill-opacity="0.52"/>
<rect x="68.1119" y="34.056" width="6.536" height="6.536" rx="3" fill="#808DAD" fill-opacity="0.52"/>
<rect x="68.1119" y="45.408" width="6.536" height="6.536" rx="3" fill="#808DAD" fill-opacity="0.52"/>
<rect x="68.1119" y="56.76" width="6.536" height="6.536" rx="3" fill="#808DAD" fill-opacity="0.52"/>
<rect x="68.1119" y="68.1119" width="6.536" height="6.536" rx="3" fill="#808DAD" fill-opacity="0.52"/>
<rect x="68.1119" y="79.464" width="6.536" height="6.536" rx="3" fill="#808DAD" fill-opacity="0.52"/>
<rect x="11.3519" width="6.536" height="6.536" rx="3" fill="#808DAD" fill-opacity="0.52"/>
<rect x="11.3519" y="11.3521" width="6.536" height="6.536" rx="3" fill="#808DAD" fill-opacity="0.52"/>
<rect x="11.3519" y="22.704" width="6.536" height="6.536" rx="3" fill="#808DAD" fill-opacity="0.52"/>
<rect x="11.3519" y="34.056" width="6.536" height="6.536" rx="3" fill="#808DAD" fill-opacity="0.52"/>
<rect x="11.3519" y="45.408" width="6.536" height="6.536" rx="3" fill="#808DAD" fill-opacity="0.52"/>
<rect x="11.3519" y="56.76" width="6.536" height="6.536" rx="3" fill="#808DAD" fill-opacity="0.52"/>
<rect x="11.3519" y="68.1119" width="6.536" height="6.536" rx="3" fill="#808DAD" fill-opacity="0.52"/>
<rect x="11.3519" y="79.464" width="6.536" height="6.536" rx="3" fill="#808DAD" fill-opacity="0.52"/>
<rect x="56.7599" width="6.536" height="6.536" rx="3" fill="#808DAD" fill-opacity="0.52"/>
<rect x="56.7599" y="11.3521" width="6.536" height="6.536" rx="3" fill="#808DAD" fill-opacity="0.52"/>
<rect x="56.7599" y="22.704" width="6.536" height="6.536" rx="3" fill="#808DAD" fill-opacity="0.52"/>
<rect x="56.7599" y="34.056" width="6.536" height="6.536" rx="3" fill="#808DAD" fill-opacity="0.52"/>
<rect x="56.7599" y="45.408" width="6.536" height="6.536" rx="3" fill="#808DAD" fill-opacity="0.52"/>
<rect x="56.7599" y="56.76" width="6.536" height="6.536" rx="3" fill="#808DAD" fill-opacity="0.52"/>
<rect x="56.7599" y="68.1119" width="6.536" height="6.536" rx="3" fill="#808DAD" fill-opacity="0.52"/>
<rect x="56.7599" y="79.464" width="6.536" height="6.536" rx="3" fill="#808DAD" fill-opacity="0.52"/>
<rect x="34.056" width="6.536" height="6.536" rx="3" fill="#808DAD" fill-opacity="0.52"/>
<rect x="34.056" y="11.3521" width="6.536" height="6.536" rx="3" fill="#808DAD" fill-opacity="0.52"/>
<rect x="34.056" y="22.704" width="6.536" height="6.536" rx="3" fill="#808DAD" fill-opacity="0.52"/>
<rect x="34.056" y="34.056" width="6.536" height="6.536" rx="3" fill="#808DAD" fill-opacity="0.52"/>
<rect x="34.056" y="45.408" width="6.536" height="6.536" rx="3" fill="#808DAD" fill-opacity="0.52"/>
<rect x="34.056" y="56.76" width="6.536" height="6.536" rx="3" fill="#808DAD" fill-opacity="0.52"/>
<rect x="34.056" y="68.1119" width="6.536" height="6.536" rx="3" fill="#808DAD" fill-opacity="0.52"/>
<rect x="34.056" y="79.464" width="6.536" height="6.536" rx="3" fill="#808DAD" fill-opacity="0.52"/>
<rect x="79.4641" width="6.536" height="6.536" rx="3" fill="#808DAD" fill-opacity="0.52"/>
<rect x="79.4641" y="11.3521" width="6.536" height="6.536" rx="3" fill="#808DAD" fill-opacity="0.52"/>
<rect x="79.4641" y="22.704" width="6.536" height="6.536" rx="3" fill="#808DAD" fill-opacity="0.52"/>
<rect x="79.4641" y="34.056" width="6.536" height="6.536" rx="3" fill="#808DAD" fill-opacity="0.52"/>
<rect x="79.4641" y="45.408" width="6.536" height="6.536" rx="3" fill="#808DAD" fill-opacity="0.52"/>
<rect x="79.4641" y="56.76" width="6.536" height="6.536" rx="3" fill="#808DAD" fill-opacity="0.52"/>
<rect x="79.4641" y="68.1119" width="6.536" height="6.536" rx="3" fill="#808DAD" fill-opacity="0.52"/>
<rect x="79.4641" y="79.464" width="6.536" height="6.536" rx="3" fill="#808DAD" fill-opacity="0.52"/>
</svg>
