<svg width="64" height="64" viewBox="0 0 64 64" fill="none" xmlns="http://www.w3.org/2000/svg">
<path d="M57.4656 1.29517H20.1655C18.8638 1.29517 17.6155 1.81225 16.695 2.73266C15.7746 3.65307 15.2575 4.90142 15.2575 6.20308V9.14783H6.4233C5.77878 9.14783 5.14058 9.27478 4.54512 9.52143C3.94966 9.76807 3.40862 10.1296 2.95288 10.5853C2.03246 11.5057 1.51538 12.7541 1.51538 14.0558V43.5033C1.51538 44.8049 2.03246 46.0533 2.95288 46.9737C3.40862 47.4294 3.94966 47.7909 4.54512 48.0376C5.14058 48.2842 5.77878 48.4112 6.4233 48.4112H20.1655V54.3007H18.2023C16.9006 54.3007 15.6523 54.8178 14.7319 55.7382C13.8115 56.6586 13.2944 57.9069 13.2944 59.2086V61.1718C13.2944 61.4321 13.3978 61.6818 13.5819 61.8658C13.766 62.0499 14.0156 62.1533 14.276 62.1533H39.7971C40.0575 62.1533 40.3071 62.0499 40.4912 61.8658C40.6753 61.6818 40.7787 61.4321 40.7787 61.1718V59.2086C40.7787 58.5641 40.6518 57.9259 40.4051 57.3304C40.1585 56.735 39.797 56.1939 39.3412 55.7382C38.8855 55.2824 38.3444 54.9209 37.749 54.6743C37.1535 54.4276 36.5153 54.3007 35.8708 54.3007H33.9076V48.4112H47.6498C48.9515 48.4112 50.1998 47.8941 51.1202 46.9737C52.0406 46.0533 52.5577 44.8049 52.5577 43.5033V36.6322H57.4656C58.7673 36.6322 60.0156 36.1151 60.9361 35.1947C61.8565 34.2743 62.3736 33.0259 62.3736 31.7243V6.20308C62.3736 5.55857 62.2466 4.92036 62 4.3249C61.7533 3.72945 61.3918 3.1884 60.9361 2.73266C60.4803 2.27692 59.9393 1.9154 59.3438 1.66876C58.7484 1.42211 58.1102 1.29517 57.4656 1.29517ZM20.1655 3.25833H57.4656C58.2466 3.25833 58.9956 3.56858 59.5479 4.12083C60.1001 4.67308 60.4104 5.42209 60.4104 6.20308V7.18467H17.2207V6.20308C17.2207 5.42209 17.531 4.67308 18.0832 4.12083C18.6355 3.56858 19.3845 3.25833 20.1655 3.25833ZM38.8156 59.2086V60.1902H15.2575V59.2086C15.2575 58.4276 15.5678 57.6786 16.12 57.1263C16.6723 56.5741 17.4213 56.2638 18.2023 56.2638H35.8708C36.6518 56.2638 37.4008 56.5741 37.9531 57.1263C38.5053 57.6786 38.8156 58.4276 38.8156 59.2086ZM31.9445 54.3007H22.1286V48.4112H31.9445V54.3007ZM47.6498 46.448H6.4233C5.6423 46.448 4.89329 46.1378 4.34105 45.5855C3.7888 45.0333 3.47855 44.2842 3.47855 43.5033V40.5585H50.5946V43.5033C50.5946 44.2842 50.2843 45.0333 49.7321 45.5855C49.1798 46.1378 48.4308 46.448 47.6498 46.448ZM50.5946 38.5953H3.47855V14.0558C3.47855 13.2748 3.7888 12.5257 4.34105 11.9735C4.89329 11.4212 5.6423 11.111 6.4233 11.111H15.2575V31.7243C15.2575 33.0259 15.7746 34.2743 16.695 35.1947C17.6155 36.1151 18.8638 36.6322 20.1655 36.6322H50.5946V38.5953ZM57.4656 34.669H20.1655C19.3845 34.669 18.6355 34.3587 18.0832 33.8065C17.531 33.2543 17.2207 32.5052 17.2207 31.7243V9.14783H60.4104V31.7243C60.4104 32.5052 60.1001 33.2543 59.5479 33.8065C58.9956 34.3587 58.2466 34.669 57.4656 34.669Z" fill="white"/>
<path d="M46.6682 42.5217H48.6314V44.4849H46.6682V42.5217Z" fill="white"/>
<path d="M42.7419 42.5217H44.7051V44.4849H42.7419V42.5217Z" fill="white"/>
<path d="M38.8154 42.5217H40.7786V44.4849H38.8154V42.5217Z" fill="white"/>
<path d="M57.4656 11.111H20.1654C19.9051 11.111 19.6554 11.2144 19.4713 11.3985C19.2873 11.5825 19.1838 11.8322 19.1838 12.0925V31.7242C19.1838 31.9845 19.2873 32.2342 19.4713 32.4183C19.6554 32.6024 19.9051 32.7058 20.1654 32.7058H57.4656C57.7259 32.7058 57.9756 32.6024 58.1597 32.4183C58.3438 32.2342 58.4472 31.9845 58.4472 31.7242V12.0925C58.4472 11.8322 58.3438 11.5825 58.1597 11.3985C57.9756 11.2144 57.7259 11.111 57.4656 11.111ZM27.0365 28.7795H30.9628V26.8163H27.0365V24.8531H28.9997V22.89H27.0365V20.9268H28.9997V18.9636H27.0365V17.0005H32.926V30.7426H27.0365V28.7795ZM41.8682 22.7231C41.6448 22.8313 41.4 22.8883 41.1517 22.89H40.4057C40.1574 22.8883 39.9126 22.8313 39.6891 22.7231C39.4251 22.5911 39.2034 22.3878 39.049 22.1363C38.8946 21.8847 38.8137 21.5949 38.8155 21.2998C38.8144 21.0754 38.8764 20.8551 38.9944 20.6642C39.1124 20.4733 39.2817 20.3194 39.483 20.2201C39.8366 20.046 40.1406 19.7858 40.3671 19.4632C40.5935 19.1407 40.7351 18.7663 40.7787 18.3747L42.0842 19.6802C42.2951 19.8935 42.4617 20.1464 42.5746 20.4244C42.6875 20.7023 42.7443 20.9998 42.7418 21.2998C42.7437 21.5949 42.6628 21.8847 42.5084 22.1363C42.354 22.3878 42.1322 22.5911 41.8682 22.7231ZM39.7971 24.7844C39.998 24.8224 40.2014 24.8453 40.4057 24.8531H41.1517C41.356 24.8453 41.5594 24.8224 41.7603 24.7844V30.7426H39.7971V24.7844ZM48.6313 22.89H50.5945V30.7426H48.6313V22.89ZM49.0142 20.9268L49.6129 19.1207L50.2117 20.9268H49.0142ZM56.484 30.7426H52.5577V21.9084C52.5718 21.8042 52.5718 21.6985 52.5577 21.5943L50.5945 15.7048C50.53 15.5084 50.4051 15.3374 50.2376 15.2162C50.0702 15.095 49.8687 15.0297 49.662 15.0297C49.4553 15.0297 49.2538 15.095 49.0864 15.2162C48.919 15.3374 48.7941 15.5084 48.7295 15.7048L46.7663 21.5943C46.719 21.6938 46.6859 21.7996 46.6682 21.9084V30.7426H43.7234V23.7439C44.3542 23.0867 44.706 22.2108 44.705 21.2998C44.7078 20.7413 44.599 20.188 44.3849 19.6721C44.1708 19.1563 43.8558 18.6885 43.4584 18.2962L40.5136 15.3514C40.3756 15.2152 40.2003 15.1229 40.0099 15.0863C39.8195 15.0496 39.6225 15.0701 39.4437 15.1453C39.2653 15.2139 39.1108 15.3331 38.9992 15.4883C38.8876 15.6435 38.8238 15.8279 38.8155 16.0189V18.1293C38.8144 18.1983 38.7947 18.2658 38.7584 18.3246C38.7221 18.3833 38.6706 18.4312 38.6094 18.463C38.081 18.7249 37.6365 19.1293 37.326 19.6307C37.0155 20.132 36.8514 20.7101 36.8523 21.2998C36.8513 22.2108 37.2031 23.0867 37.8339 23.7439V30.7426H34.8892V16.0189C34.8892 15.7585 34.7858 15.5089 34.6017 15.3248C34.4176 15.1407 34.1679 15.0373 33.9076 15.0373H26.0549C25.7946 15.0373 25.5449 15.1407 25.3608 15.3248C25.1768 15.5089 25.0733 15.7585 25.0733 16.0189V30.7426H21.147V13.0741H56.484V30.7426Z" fill="white"/>
</svg>
